<svg width="87" height="29" viewBox="0 0 87 29" fill="none" xmlns="http://www.w3.org/2000/svg">
<path d="M16.4629 28.6413V5.92566H21.1274V8.91288H21.2392C21.548 8.22065 21.9527 7.62427 22.4532 7.12374C22.9644 6.62321 23.5555 6.23982 24.2264 5.97358C24.908 5.70734 25.6534 5.57422 26.4628 5.57422C27.9111 5.57422 29.1571 5.93098 30.2008 6.64451C31.2444 7.34738 32.0485 8.36442 32.6129 9.69563C33.1773 11.0268 33.4595 12.619 33.4595 14.472V14.488C33.4595 16.341 33.1773 17.9331 32.6129 19.2643C32.0591 20.5955 31.2657 21.6179 30.2327 22.3314C29.1997 23.0449 27.9644 23.4017 26.5267 23.4017C25.7173 23.4017 24.9665 23.2686 24.2743 23.0023C23.5821 22.7361 22.9804 22.3634 22.4692 21.8841C21.958 21.3943 21.5427 20.8085 21.2232 20.1269H21.1274V28.6413H16.4629ZM24.9293 19.5359C25.7067 19.5359 26.3776 19.3335 26.942 18.9289C27.5064 18.5135 27.9431 17.9278 28.2519 17.1717C28.5607 16.4155 28.7152 15.521 28.7152 14.488V14.472C28.7152 13.4283 28.5607 12.5284 28.2519 11.7723C27.9431 11.0162 27.5011 10.4411 26.926 10.0471C26.3616 9.64238 25.696 9.44004 24.9293 9.44004C24.1731 9.44004 23.5075 9.6477 22.9325 10.063C22.3574 10.4677 21.9101 11.0481 21.5906 11.8043C21.2711 12.5497 21.1114 13.4443 21.1114 14.488V14.5039C21.1114 15.5263 21.2711 16.4155 21.5906 17.1717C21.9208 17.9278 22.3681 18.5135 22.9325 18.9289C23.5075 19.3335 24.1731 19.5359 24.9293 19.5359Z" fill="black"/>
<path d="M4.66449 23.0508H0V5.75781H4.66449V23.0508ZM4.08942 18.0029V12.7793H4.76034L10.543 5.92623H15.8305L7.92324 14.9198H6.88491L4.08942 18.0029Z" fill="black"/>
<path d="M10.7667 23.0508L5.47918 15.479L8.43442 11.9326L16.15 23.0508H10.7667Z" fill="black"/>
<path d="M78.8117 23.4017C77.0759 23.4017 75.5743 23.0396 74.307 22.3154C73.0397 21.5913 72.0653 20.5636 71.3837 19.2324C70.7021 17.8905 70.3613 16.3037 70.3613 14.472V14.456C70.3613 12.6243 70.7021 11.0481 71.3837 9.72758C72.0759 8.39637 73.0503 7.37401 74.307 6.66048C75.5743 5.93631 77.0599 5.57422 78.7638 5.57422C80.3186 5.57422 81.6658 5.86708 82.8053 6.45281C83.9448 7.02789 84.834 7.81064 85.473 8.80106C86.1226 9.79147 86.4794 10.9044 86.5433 12.1397V12.2515H82.2142L82.1823 12.1078C82.0439 11.2877 81.6924 10.6062 81.128 10.063C80.5636 9.50926 79.7968 9.23237 78.8277 9.23237C78.0716 9.23237 77.4113 9.44536 76.8469 9.87135C76.2931 10.2867 75.8618 10.8884 75.553 11.6765C75.2548 12.4539 75.1057 13.3857 75.1057 14.472V14.488C75.1057 15.6062 75.2548 16.5593 75.553 17.3474C75.8618 18.1248 76.2931 18.7212 76.8469 19.1365C77.4113 19.5412 78.0769 19.7436 78.8437 19.7436C79.7808 19.7436 80.5316 19.4826 81.096 18.9608C81.6711 18.4283 82.0385 17.7308 82.1983 16.8682L82.2142 16.7244H86.5593V16.8202C86.4847 18.0662 86.1226 19.1845 85.473 20.1749C84.8234 21.1653 83.9288 21.9534 82.7893 22.5391C81.6605 23.1142 80.3346 23.4017 78.8117 23.4017Z" fill="url(#paint0_linear_323_2498)"/>
<path d="M61.0702 23.4017C59.3344 23.4017 57.8328 23.0449 56.5655 22.3314C55.2982 21.6179 54.3184 20.5955 53.6262 19.2643C52.934 17.9331 52.5879 16.341 52.5879 14.488V14.456C52.5879 12.6136 52.9393 11.0322 53.6422 9.7116C54.3451 8.3804 55.3301 7.35803 56.5974 6.64451C57.8647 5.93098 59.3503 5.57422 61.0543 5.57422C62.7688 5.57422 64.2598 5.93098 65.5271 6.64451C66.805 7.34738 67.7954 8.36442 68.4983 9.69563C69.2011 11.0162 69.5526 12.603 69.5526 14.456V14.488C69.5526 16.3517 69.2011 17.9491 68.4983 19.2803C67.8061 20.6115 66.8263 21.6339 65.559 22.3474C64.2917 23.0503 62.7955 23.4017 61.0702 23.4017ZM61.0862 19.7436C61.8423 19.7436 62.4973 19.5412 63.051 19.1365C63.6155 18.7212 64.0468 18.1248 64.345 17.3474C64.6538 16.5593 64.8082 15.6062 64.8082 14.488V14.456C64.8082 13.3485 64.6538 12.406 64.345 11.6285C64.0361 10.8511 63.5995 10.2601 63.0351 9.85537C62.4706 9.44004 61.8104 9.23237 61.0543 9.23237C60.3088 9.23237 59.6538 9.44004 59.0894 9.85537C58.5356 10.2601 58.1043 10.8511 57.7955 11.6285C57.4867 12.406 57.3323 13.3485 57.3323 14.456V14.488C57.3323 15.6062 57.4813 16.5593 57.7795 17.3474C58.0884 18.1248 58.525 18.7212 59.0894 19.1365C59.6538 19.5412 60.3194 19.7436 61.0862 19.7436Z" fill="url(#paint1_linear_323_2498)"/>
<path d="M41.7011 23.4026C40.2634 23.4026 39.0228 23.0458 37.9791 22.3323C36.9355 21.6188 36.1314 20.5964 35.567 19.2652C35.0132 17.934 34.7363 16.3419 34.7363 14.4888V14.4729C34.7363 12.6092 35.0185 11.017 35.583 9.69649C36.1474 8.36529 36.9461 7.34825 37.9791 6.64537C39.0228 5.93185 40.2634 5.57508 41.7011 5.57508C42.5105 5.57508 43.2559 5.70821 43.9375 5.97445C44.6191 6.24069 45.2155 6.62407 45.7266 7.12461C46.2485 7.61449 46.6638 8.20554 46.9726 8.89777H47.0685V0H51.733V23.0511H47.0685V20.1278H46.9726C46.6744 20.8094 46.2698 21.3951 45.7586 21.885C45.2474 22.3642 44.651 22.737 43.9695 23.0032C43.2879 23.2695 42.5318 23.4026 41.7011 23.4026ZM43.2666 19.5368C44.0227 19.5368 44.6883 19.3344 45.2634 18.9297C45.8385 18.5144 46.2857 17.9287 46.6052 17.1725C46.9247 16.4164 47.0844 15.5218 47.0844 14.4888V14.4729C47.0844 13.4398 46.9194 12.5506 46.5892 11.8051C46.2698 11.049 45.8225 10.4686 45.2474 10.0639C44.683 9.64857 44.0227 9.4409 43.2666 9.4409C42.4892 9.4409 41.8183 9.64325 41.2538 10.0479C40.6894 10.4526 40.2528 11.033 39.9439 11.7891C39.6351 12.5346 39.4807 13.4292 39.4807 14.4729V14.4888C39.4807 15.5218 39.6298 16.4164 39.928 17.1725C40.2368 17.9287 40.6734 18.5144 41.2379 18.9297C41.8129 19.3344 42.4892 19.5368 43.2666 19.5368Z" fill="url(#paint2_linear_323_2498)"/>
<defs>
<linearGradient id="paint0_linear_323_2498" x1="95.3416" y1="0.616659" x2="36.454" y2="14.17" gradientUnits="userSpaceOnUse">
<stop stop-color="#FF5929"/>
<stop offset="1" stop-color="#5D1B05"/>
</linearGradient>
<linearGradient id="paint1_linear_323_2498" x1="95.3405" y1="0.616663" x2="36.4529" y2="14.17" gradientUnits="userSpaceOnUse">
<stop stop-color="#FF5929"/>
<stop offset="1" stop-color="#5D1B05"/>
</linearGradient>
<linearGradient id="paint2_linear_323_2498" x1="95.3418" y1="0.61753" x2="36.4542" y2="14.1709" gradientUnits="userSpaceOnUse">
<stop stop-color="#FF5929"/>
<stop offset="1" stop-color="#5D1B05"/>
</linearGradient>
</defs>
</svg>
