<svg width="92" height="26" viewBox="0 0 92 26" fill="none" xmlns="http://www.w3.org/2000/svg">
<path d="M17.1152 25V6H33.9316V25H28.9414V9.89925H22.1055V25H17.1152Z" fill="#521A09"/>
<path d="M5.58838 17.0243H4.99023V25H0V6H4.99023V13.4618H5.58838L11.2109 6H16.8848L9.67285 15.1101V14.472L17.312 25H11.3135L5.58838 17.0243Z" fill="#320E03"/>
<path d="M75 25V0H79.91V25H75ZM86.3333 25L80.7676 16.7879L83.8783 12.9418L92 25H86.3333ZM79.3046 19.5253V13.86H80.0109L86.0979 6.42758H91.6637L83.3403 16.1816H82.2473L79.3046 19.5253Z" fill="url(#paint0_linear_350_2601)"/>
<path d="M64.856 25.0371C62.9989 25.0371 61.3924 24.6554 60.0366 23.8921C58.6808 23.1287 57.6326 22.035 56.8921 20.6108C56.1515 19.1867 55.7812 17.4834 55.7812 15.501V15.4668C55.7812 13.4958 56.1572 11.8039 56.9092 10.3911C57.6611 8.96696 58.715 7.87321 60.0708 7.10986C61.4266 6.34652 63.016 5.96484 64.8389 5.96484C66.6732 5.96484 68.2682 6.34652 69.624 7.10986C70.9912 7.86182 72.0508 8.94987 72.8027 10.374C73.5547 11.7868 73.9307 13.4844 73.9307 15.4668V15.501C73.9307 17.4948 73.5547 19.2038 72.8027 20.6279C72.0622 22.0521 71.014 23.1458 69.6582 23.9092C68.3024 24.6611 66.7017 25.0371 64.856 25.0371ZM64.873 21.1235C65.682 21.1235 66.3826 20.9071 66.9751 20.4741C67.5789 20.0298 68.0404 19.3918 68.3594 18.5601C68.6898 17.717 68.855 16.6973 68.855 15.501V15.4668C68.855 14.2819 68.6898 13.2736 68.3594 12.4419C68.029 11.6102 67.5618 10.9779 66.958 10.5449C66.3542 10.1006 65.6478 9.87842 64.8389 9.87842C64.0413 9.87842 63.3407 10.1006 62.7368 10.5449C62.1444 10.9779 61.6829 11.6102 61.3525 12.4419C61.0221 13.2736 60.8569 14.2819 60.8569 15.4668V15.501C60.8569 16.6973 61.0164 17.717 61.3354 18.5601C61.6659 19.3918 62.133 20.0298 62.7368 20.4741C63.3407 20.9071 64.0527 21.1235 64.873 21.1235Z" fill="url(#paint1_linear_350_2601)"/>
<path d="M39.4581 25H35V21.0299H36.3743C37.0335 20.6281 37.5084 19.9369 37.7989 18.9562C38.0894 17.9754 38.2737 16.8411 38.352 15.5532L38.9385 6H53.3184V21.0299H56V25H51.5419H39.4581ZM48.4246 21.0299V9.97015H43.0615L42.6592 15.8899C42.6034 16.9061 42.4693 17.8396 42.257 18.6903C42.0559 19.5292 41.743 20.2736 41.3184 20.9235V21.0299H48.4246Z" fill="url(#paint2_linear_350_2601)"/>
<defs>
<linearGradient id="paint0_linear_350_2601" x1="100.67" y1="0.669239" x2="36.5712" y2="15.4815" gradientUnits="userSpaceOnUse">
<stop stop-color="#FF5929"/>
<stop offset="1" stop-color="#5D1B05"/>
</linearGradient>
<linearGradient id="paint1_linear_350_2601" x1="101.722" y1="0.660157" x2="36.7787" y2="16.1228" gradientUnits="userSpaceOnUse">
<stop stop-color="#FF5929"/>
<stop offset="1" stop-color="#5D1B05"/>
</linearGradient>
<linearGradient id="paint2_linear_350_2601" x1="101.414" y1="0.109595" x2="37.3614" y2="14.5306" gradientUnits="userSpaceOnUse">
<stop stop-color="#FF5929"/>
<stop offset="1" stop-color="#5D1B05"/>
</linearGradient>
</defs>
</svg>
