<svg width="70" height="70" viewBox="0 0 70 70" fill="none" xmlns="http://www.w3.org/2000/svg">
<g clip-path="url(#clip0_350_2532)">
<rect width="70" height="70" rx="12" fill="#F8F9F8"/>
<path d="M23.7461 32.4619V15H39.2002V32.4619H34.6142V18.5836H28.3321V32.4619H23.7461Z" fill="#521A09"/>
<path d="M13.1357 25.1318H12.586V32.4619H8V15H12.586V21.8577H13.1357L18.3027 15H23.5169L16.8892 23.3726V22.7862L23.9095 32.4619H18.3969L13.1357 25.1318Z" fill="#320E03"/>
<path d="M45.5234 55.4176V32.4414H50.0357V55.4176H45.5234ZM55.9386 55.4176L50.8238 47.8703L53.6825 44.3355L61.1462 55.4176H55.9386ZM49.4794 50.3861V45.1794H50.1284L55.7223 38.3487H60.8372L53.188 47.313H52.1836L49.4794 50.3861Z" fill="url(#paint0_linear_350_2532)"/>
<path d="M36.2185 55.4404C34.5118 55.4404 33.0355 55.0896 31.7895 54.3881C30.5436 53.6865 29.5803 52.6813 28.8998 51.3725C28.2192 50.0636 27.8789 48.4982 27.8789 46.6763V46.6448C27.8789 44.8334 28.2244 43.2784 28.9155 41.9801C29.6065 40.6712 30.575 39.666 31.821 38.9644C33.0669 38.2629 34.5275 37.9121 36.2027 37.9121C37.8885 37.9121 39.3543 38.2629 40.6002 38.9644C41.8567 39.6555 42.8304 40.6555 43.5214 41.9643C44.2125 43.2627 44.558 44.8229 44.558 46.6448V46.6763C44.558 48.5087 44.2125 50.0793 43.5214 51.3882C42.8409 52.697 41.8776 53.7022 40.6317 54.4038C39.3857 55.0949 37.9146 55.4404 36.2185 55.4404ZM36.2342 51.8436C36.9775 51.8436 37.6215 51.6447 38.1659 51.2468C38.7208 50.8384 39.1449 50.2521 39.438 49.4877C39.7417 48.7128 39.8935 47.7757 39.8935 46.6763V46.6448C39.8935 45.5559 39.7417 44.6292 39.438 43.8648C39.1344 43.1004 38.7051 42.5193 38.1502 42.1214C37.5953 41.713 36.9461 41.5089 36.2027 41.5089C35.4698 41.5089 34.8259 41.713 34.271 42.1214C33.7265 42.5193 33.3025 43.1004 32.9989 43.8648C32.6952 44.6292 32.5434 45.5559 32.5434 46.6448V46.6763C32.5434 47.7757 32.69 48.7128 32.9831 49.4877C33.2868 50.2521 33.7161 50.8384 34.271 51.2468C34.8259 51.6447 35.4803 51.8436 36.2342 51.8436Z" fill="url(#paint1_linear_350_2532)"/>
<path d="M12.8704 55.4189H8.77344V51.7702H10.0364C10.6422 51.4009 11.0786 50.7657 11.3456 49.8643C11.6125 48.963 11.782 47.9205 11.8538 46.7368L12.3929 37.957H25.6079V51.7702H28.0722V55.4189H23.9752H12.8704ZM21.1105 51.7702V41.6058H16.1818L15.8122 47.0463C15.7608 47.9802 15.6376 48.8381 15.4425 49.62C15.2577 50.391 14.9702 51.0752 14.58 51.6724V51.7702H21.1105Z" fill="url(#paint2_linear_350_2532)"/>
</g>
<defs>
<linearGradient id="paint0_linear_350_2532" x1="69.1135" y1="33.0565" x2="10.2075" y2="46.668" gradientUnits="userSpaceOnUse">
<stop stop-color="#FF5929"/>
<stop offset="1" stop-color="#5D1B05"/>
</linearGradient>
<linearGradient id="paint1_linear_350_2532" x1="70.0978" y1="33.0369" x2="10.4154" y2="47.2461" gradientUnits="userSpaceOnUse">
<stop stop-color="#FF5929"/>
<stop offset="1" stop-color="#5D1B05"/>
</linearGradient>
<linearGradient id="paint2_linear_350_2532" x1="69.807" y1="32.5435" x2="10.9431" y2="45.7955" gradientUnits="userSpaceOnUse">
<stop stop-color="#FF5929"/>
<stop offset="1" stop-color="#5D1B05"/>
</linearGradient>
<clipPath id="clip0_350_2532">
<rect width="70" height="70" rx="12" fill="white"/>
</clipPath>
</defs>
</svg>
