<?xml version="1.0" encoding="UTF-8" ?>
<!DOCTYPE svg PUBLIC "-//W3C//DTD SVG 1.1//EN" "http://www.w3.org/Graphics/SVG/1.1/DTD/svg11.dtd">
<svg width="1352pt" height="569pt" viewBox="0 0 1352 569" version="1.1" xmlns="http://www.w3.org/2000/svg">
<g id="#b82f2bff">
<path fill="#b82f2b" opacity="1.00" d=" M 0.00 0.00 L 1352.00 0.00 L 1352.00 569.00 L 0.00 569.00 L 0.00 0.00 M 664.56 95.81 C 633.22 104.47 601.96 113.44 570.53 121.75 C 547.95 128.60 525.03 134.25 502.37 140.79 C 482.12 146.59 461.91 152.51 441.53 157.80 C 425.83 162.03 410.37 167.05 394.57 170.89 C 339.34 186.22 284.14 201.66 228.85 216.79 C 218.29 219.52 208.12 223.54 197.55 226.25 C 184.53 229.71 171.62 233.59 158.75 237.54 C 148.81 240.31 138.77 242.71 128.91 245.77 C 115.87 249.70 102.53 252.52 89.45 256.30 C 85.17 257.36 80.85 258.63 77.17 261.16 C 96.91 256.07 117.14 253.29 137.17 249.58 C 153.20 247.04 168.96 243.04 185.04 240.72 C 214.94 234.47 245.14 229.82 275.01 223.47 C 288.54 220.50 302.33 219.02 315.91 216.26 C 342.54 210.98 369.46 207.25 396.08 201.87 C 412.37 198.61 428.86 196.50 445.11 193.04 C 458.68 190.15 472.34 187.79 486.01 185.42 C 507.90 181.74 529.63 177.14 551.49 173.26 C 584.93 166.44 618.52 160.36 652.04 153.93 C 658.60 152.98 665.21 150.75 671.87 152.12 C 684.97 154.43 697.99 157.12 711.10 159.35 C 734.50 163.23 757.71 168.15 781.08 172.18 C 802.44 175.66 823.70 179.76 845.02 183.48 C 863.85 186.17 882.43 190.31 901.22 193.24 C 921.52 196.40 941.72 200.12 961.90 203.97 C 981.36 206.88 1000.88 209.56 1020.18 213.47 C 1031.34 215.44 1042.53 217.25 1053.72 219.04 C 1079.72 223.98 1105.80 228.49 1131.88 232.97 C 1144.63 234.87 1157.15 238.06 1169.90 239.98 C 1180.41 241.86 1191.05 243.04 1201.49 245.34 C 1216.30 248.44 1231.22 251.01 1246.17 253.35 C 1254.15 254.39 1261.78 257.08 1269.74 258.24 C 1260.57 254.43 1250.86 252.27 1241.30 249.75 C 1232.82 247.26 1224.29 245.01 1215.67 243.10 C 1203.68 240.52 1192.05 236.57 1180.20 233.45 C 1170.84 230.53 1161.24 228.56 1151.80 225.94 C 1115.21 216.05 1078.53 206.49 1041.94 196.59 C 1027.75 193.16 1013.98 188.19 999.72 185.07 C 981.90 181.11 964.54 175.41 946.89 170.80 C 905.88 160.40 865.25 148.57 824.35 137.77 C 803.63 131.91 782.68 126.91 762.02 120.83 C 749.77 117.23 737.30 114.44 725.04 110.91 C 706.48 105.67 687.70 101.29 669.15 96.02 C 667.66 95.61 666.07 95.39 664.56 95.81 M 1237.60 158.95 C 1225.43 158.84 1215.08 166.85 1208.32 176.35 C 1201.12 187.44 1199.43 202.07 1204.53 214.34 C 1207.51 222.63 1214.10 229.05 1221.28 233.85 C 1235.77 244.14 1256.77 241.01 1269.83 229.79 C 1285.30 216.97 1287.61 192.05 1276.09 175.92 C 1271.61 169.64 1265.45 164.62 1258.58 161.17 C 1251.94 158.57 1244.61 158.60 1237.60 158.95 M 613.99 202.35 C 609.54 202.40 605.05 202.33 600.69 203.30 C 600.67 217.13 600.66 230.96 600.69 244.79 C 613.87 245.41 627.07 244.16 640.26 244.38 C 640.34 311.21 640.18 378.03 640.34 444.85 C 648.57 445.01 656.80 444.51 665.04 444.61 C 670.50 444.50 675.96 445.04 681.43 444.68 C 681.63 378.14 681.39 311.59 681.55 245.05 C 694.51 244.38 707.51 244.94 720.50 244.75 C 720.88 236.78 720.09 228.76 721.00 220.81 C 721.49 214.65 721.36 208.43 720.39 202.32 C 684.93 201.58 649.44 201.22 613.99 202.35 M 731.49 203.04 C 731.50 283.58 731.39 364.12 731.55 444.66 C 744.37 444.98 757.20 444.94 770.02 444.69 C 771.75 438.64 774.32 432.88 776.48 426.99 C 783.79 408.72 790.80 390.33 798.19 372.09 C 805.21 355.44 810.16 338.01 817.28 321.39 C 817.51 323.58 817.71 325.78 817.73 327.99 C 817.58 341.65 817.41 355.31 817.42 368.97 C 817.89 394.20 817.20 419.44 817.80 444.66 C 831.97 444.95 846.16 444.99 860.32 444.64 C 860.42 367.61 860.36 290.58 860.35 213.55 C 847.88 211.88 835.35 210.67 822.85 209.28 C 822.35 209.63 821.36 210.34 820.86 210.70 C 819.55 216.06 817.27 221.11 815.26 226.24 C 810.18 239.61 804.52 252.75 799.13 266.01 C 798.06 268.65 797.02 271.32 796.02 274.00 C 792.96 282.50 789.14 290.70 785.85 299.11 C 781.75 308.31 778.56 317.93 773.55 326.69 C 773.06 315.14 773.44 303.56 773.32 292.00 C 773.33 263.20 773.31 234.40 773.33 205.60 C 759.39 204.64 745.43 203.97 731.49 203.04 M 571.12 205.51 C 563.65 206.14 556.12 206.18 548.71 207.39 C 548.68 238.16 548.73 268.93 548.69 299.70 C 534.20 300.02 519.72 301.29 505.23 301.10 C 505.38 274.40 505.22 247.71 505.31 221.01 C 505.39 217.71 504.95 214.44 504.48 211.19 C 490.52 212.73 476.58 214.37 462.65 216.10 C 462.89 291.10 462.67 366.10 462.76 441.10 C 462.85 442.52 462.83 445.28 464.98 444.81 C 478.49 444.82 492.01 445.02 505.51 444.67 C 505.73 411.71 505.55 378.73 505.60 345.77 C 518.06 345.26 530.52 345.25 542.98 344.76 C 545.09 344.67 547.19 344.90 549.29 345.22 C 549.48 378.34 549.02 411.48 549.52 444.60 C 563.49 445.05 577.49 444.92 591.47 444.67 C 591.65 364.54 591.52 284.41 591.53 204.29 C 584.71 204.33 577.92 205.10 571.12 205.51 M 874.46 215.53 C 874.35 291.91 874.30 368.30 874.48 444.68 C 888.72 444.94 902.98 444.99 917.23 444.65 C 917.27 411.48 917.20 378.30 917.26 345.13 C 917.66 345.27 918.47 345.56 918.87 345.71 C 927.91 365.89 938.40 385.37 947.74 405.40 C 953.85 418.63 960.99 431.37 966.90 444.70 C 975.19 446.05 983.64 444.67 991.99 444.83 C 999.65 444.63 1007.29 445.50 1014.94 445.09 C 1009.26 432.08 1002.35 419.64 996.18 406.86 C 983.81 382.40 971.96 357.69 959.82 333.13 C 959.10 331.76 959.26 330.14 959.74 328.73 C 964.71 316.40 971.35 304.85 976.94 292.80 C 980.76 283.56 985.84 274.91 989.89 265.76 C 991.39 262.03 993.27 258.48 994.90 254.81 C 997.86 248.25 1000.61 241.58 1003.85 235.14 C 1004.25 235.16 1005.03 235.20 1005.43 235.22 C 1009.23 242.78 1011.14 251.08 1014.05 258.99 C 1019.22 273.85 1023.80 288.90 1028.75 303.84 C 1033.04 315.39 1036.61 327.19 1040.77 338.79 C 1043.33 345.37 1045.29 352.17 1047.77 358.79 C 1050.77 366.94 1053.56 375.18 1056.74 383.27 C 1058.92 388.34 1056.94 393.86 1055.05 398.68 C 1053.35 402.91 1050.53 407.33 1045.83 408.52 C 1040.29 409.31 1034.66 408.82 1029.10 408.71 C 1028.69 409.18 1027.89 410.11 1027.48 410.58 C 1027.50 422.23 1027.36 433.88 1027.56 445.53 C 1036.74 445.20 1045.94 445.23 1055.13 445.10 C 1065.96 444.22 1077.56 440.40 1084.31 431.39 C 1088.43 424.99 1091.10 417.80 1093.82 410.74 C 1101.50 390.16 1107.80 369.10 1115.70 348.61 C 1123.25 326.90 1131.36 305.40 1138.72 283.63 C 1142.00 273.45 1146.29 263.64 1149.38 253.39 C 1134.87 251.07 1120.33 248.75 1105.74 247.03 C 1096.23 274.70 1088.29 302.90 1078.73 330.55 C 1075.99 325.81 1075.33 320.28 1073.80 315.11 C 1067.12 288.99 1057.85 263.64 1050.65 237.67 C 1033.26 236.45 1016.10 233.39 998.91 230.68 C 987.87 228.95 976.57 228.94 965.72 226.12 C 964.10 225.90 961.81 224.75 960.90 226.74 C 957.66 231.79 955.61 237.49 953.03 242.88 C 950.08 249.23 946.62 255.32 943.91 261.78 C 940.31 270.28 935.46 278.21 932.00 286.77 C 931.32 288.12 930.67 289.47 930.03 290.82 C 926.47 298.50 922.35 305.91 918.87 313.62 C 918.35 313.68 917.31 313.80 916.79 313.86 C 916.17 306.89 917.55 299.98 917.25 293.02 C 917.05 283.00 917.70 272.95 916.70 262.96 C 916.53 248.70 916.78 234.43 916.58 220.17 C 902.56 218.44 888.51 216.89 874.46 215.53 M 373.13 228.70 C 362.14 230.00 351.28 232.19 340.26 233.24 C 339.86 239.15 340.30 245.07 340.20 250.99 C 340.19 271.01 340.19 291.03 340.19 311.05 C 340.18 315.36 340.35 319.69 339.87 323.99 C 339.38 333.33 340.79 342.65 339.87 351.98 C 339.88 357.31 340.40 362.63 340.19 367.97 C 340.37 384.35 339.34 400.71 339.95 417.09 C 340.50 426.32 339.97 435.57 340.26 444.80 C 377.28 444.84 414.32 444.95 451.34 444.75 C 451.55 431.30 451.77 417.83 451.15 404.39 C 428.30 403.99 405.42 405.54 382.56 405.45 C 382.45 388.63 382.54 371.80 382.51 354.98 C 401.24 353.95 419.97 352.89 438.71 352.06 C 438.74 338.35 438.79 324.63 438.69 310.92 C 419.95 311.98 401.25 313.54 382.51 314.55 C 382.07 299.09 382.47 283.61 382.30 268.14 C 401.18 266.06 420.04 263.72 438.91 261.54 C 442.77 261.10 446.69 260.88 450.46 259.83 C 450.47 245.88 450.50 231.93 450.45 217.98 C 424.57 220.70 398.81 224.51 373.13 228.70 M 281.12 242.94 C 261.64 246.47 242.05 249.46 222.41 251.96 C 222.45 283.28 222.42 314.61 222.43 345.94 C 222.58 378.91 222.04 411.89 222.87 444.85 C 237.03 444.81 251.19 444.92 265.35 444.79 C 265.76 422.85 265.49 400.90 265.57 378.96 C 265.53 347.17 265.75 315.37 265.19 283.59 C 286.06 281.56 306.77 278.07 327.52 275.32 C 328.15 262.07 327.66 248.75 327.76 235.47 C 312.33 238.68 296.62 240.16 281.12 242.94 M 1161.21 264.18 C 1156.32 266.88 1153.66 272.32 1153.41 277.77 C 1152.33 296.14 1153.01 314.56 1152.82 332.96 C 1152.83 361.00 1152.81 389.04 1152.83 417.08 C 1152.85 425.07 1155.37 433.91 1162.27 438.64 C 1169.16 442.64 1177.16 444.12 1184.96 445.19 C 1202.60 446.74 1220.36 446.66 1238.03 445.45 C 1248.25 444.52 1258.74 444.93 1268.65 441.88 C 1274.37 440.18 1278.92 435.87 1281.44 430.52 C 1283.29 421.82 1282.64 412.87 1282.76 404.04 C 1282.66 399.21 1283.03 394.36 1282.55 389.55 C 1268.26 388.00 1253.90 386.92 1239.56 386.11 C 1239.51 394.36 1240.11 402.82 1237.76 410.84 C 1231.54 411.63 1225.27 410.64 1219.03 410.71 C 1211.94 410.39 1204.63 411.63 1197.79 409.25 C 1196.47 406.70 1195.73 403.86 1195.73 400.98 C 1195.39 392.32 1195.51 383.65 1195.77 374.99 C 1195.80 361.67 1195.76 348.34 1195.79 335.02 C 1195.72 323.85 1194.97 312.56 1196.45 301.47 C 1200.01 298.87 1204.73 299.75 1208.81 300.21 C 1216.56 301.40 1224.34 302.53 1232.06 303.92 C 1235.25 304.36 1238.60 306.59 1238.68 310.12 C 1239.01 316.26 1238.72 322.42 1238.78 328.57 C 1239.06 328.88 1239.61 329.50 1239.89 329.81 C 1254.13 331.48 1268.33 333.45 1282.55 335.27 C 1282.98 327.52 1282.66 319.76 1282.77 312.02 C 1282.72 305.86 1283.35 299.29 1280.39 293.64 C 1276.37 285.17 1268.22 279.32 1259.47 276.44 C 1247.74 272.65 1235.61 270.27 1223.44 268.43 C 1212.17 266.80 1201.23 263.47 1189.96 261.83 C 1180.44 260.10 1170.01 259.45 1161.21 264.18 M 147.50 266.17 C 136.01 268.23 124.41 269.59 112.87 271.32 C 105.49 296.62 98.82 322.13 91.62 347.48 C 82.79 380.16 73.39 412.69 64.76 445.43 C 79.21 444.92 93.66 444.59 108.11 445.20 C 109.97 437.02 111.90 428.85 113.75 420.67 C 114.28 419.35 114.39 416.92 116.30 417.01 C 132.66 416.51 149.03 416.29 165.40 415.85 C 168.09 425.44 169.68 435.32 172.66 444.84 C 187.38 444.91 202.12 444.68 216.82 445.08 C 212.75 427.90 206.77 411.22 202.54 394.07 C 196.71 373.46 190.32 353.01 184.86 332.30 C 178.09 309.79 171.36 287.27 164.38 264.83 C 164.05 264.47 163.40 263.76 163.07 263.40 C 157.81 263.87 152.69 265.26 147.50 266.17 M 64.39 483.53 C 121.60 483.67 178.81 483.55 236.03 483.59 C 585.14 483.57 934.25 483.64 1283.36 483.55 C 1283.63 475.33 1283.57 467.09 1283.40 458.86 C 877.06 458.85 470.71 458.85 64.37 458.86 C 64.17 467.08 64.15 475.31 64.39 483.53 Z" />
<path fill="#b82f2b" opacity="1.00" d=" M 1234.32 169.25 C 1241.93 167.25 1250.03 168.60 1257.16 171.71 C 1264.40 175.34 1269.31 182.41 1272.14 189.82 C 1277.45 205.69 1267.66 226.22 1250.58 229.43 C 1243.29 231.22 1235.58 230.05 1228.68 227.35 C 1220.49 223.67 1215.16 215.73 1212.37 207.46 C 1209.79 198.29 1212.29 188.26 1217.58 180.52 C 1221.11 174.49 1227.62 170.71 1234.32 169.25 M 1226.64 181.74 C 1226.52 193.55 1226.62 205.36 1226.59 217.18 C 1227.16 217.97 1227.74 218.77 1228.34 219.58 C 1230.72 219.53 1233.12 219.46 1235.53 219.32 C 1235.91 214.76 1235.57 210.18 1235.90 205.62 C 1237.86 203.84 1241.32 204.82 1243.80 205.14 C 1247.17 208.57 1248.31 213.44 1250.46 217.61 C 1252.86 220.89 1257.56 219.19 1260.99 219.18 C 1258.69 213.51 1256.40 207.66 1252.42 202.92 C 1255.41 199.95 1258.65 196.60 1258.55 192.06 C 1259.30 186.94 1254.94 182.19 1249.88 182.05 C 1242.15 181.51 1234.38 181.96 1226.64 181.74 Z" />
<path fill="#b82f2b" opacity="1.00" d=" M 1236.30 188.37 C 1239.86 188.54 1243.68 187.64 1247.09 188.97 C 1250.39 190.91 1249.08 195.18 1247.13 197.63 C 1243.45 197.59 1239.78 197.61 1236.13 197.48 C 1236.08 194.44 1236.12 191.40 1236.30 188.37 Z" />
<path fill="#b82f2b" opacity="1.00" d=" M 139.40 315.25 C 140.66 318.40 141.54 321.68 142.33 324.97 C 146.84 343.35 151.61 361.66 156.01 380.06 C 145.27 381.03 134.49 381.51 123.74 382.33 C 126.07 370.90 128.93 359.59 131.48 348.21 C 134.25 337.25 136.27 326.11 139.40 315.25 Z" />
</g>
<g id="#f6f6f6ff">
<path fill="#f6f6f6" opacity="1.00" d=" M 664.56 95.81 C 666.07 95.39 667.66 95.61 669.15 96.02 C 687.70 101.29 706.48 105.67 725.04 110.91 C 737.30 114.44 749.77 117.23 762.02 120.83 C 782.68 126.91 803.63 131.91 824.35 137.77 C 865.25 148.57 905.88 160.40 946.89 170.80 C 964.54 175.41 981.90 181.11 999.72 185.07 C 1013.98 188.19 1027.75 193.16 1041.94 196.59 C 1078.53 206.49 1115.21 216.05 1151.80 225.94 C 1161.24 228.56 1170.84 230.53 1180.20 233.45 C 1192.05 236.57 1203.68 240.52 1215.67 243.10 C 1224.29 245.01 1232.82 247.26 1241.30 249.75 C 1250.86 252.27 1260.57 254.43 1269.74 258.24 C 1261.78 257.08 1254.15 254.39 1246.17 253.35 C 1231.22 251.01 1216.30 248.44 1201.49 245.34 C 1191.05 243.04 1180.41 241.86 1169.90 239.98 C 1157.15 238.06 1144.63 234.87 1131.88 232.97 C 1105.80 228.49 1079.72 223.98 1053.72 219.04 C 1042.53 217.25 1031.34 215.44 1020.18 213.47 C 1000.88 209.56 981.36 206.88 961.90 203.97 C 941.72 200.12 921.52 196.40 901.22 193.24 C 882.43 190.31 863.85 186.17 845.02 183.48 C 823.70 179.76 802.44 175.66 781.08 172.18 C 757.71 168.15 734.50 163.23 711.10 159.35 C 697.99 157.12 684.97 154.43 671.87 152.12 C 665.21 150.75 658.60 152.98 652.04 153.93 C 618.52 160.36 584.93 166.44 551.49 173.26 C 529.63 177.14 507.90 181.74 486.01 185.42 C 472.34 187.79 458.68 190.15 445.11 193.04 C 428.86 196.50 412.37 198.61 396.08 201.87 C 369.46 207.25 342.54 210.98 315.91 216.26 C 302.33 219.02 288.54 220.50 275.01 223.47 C 245.14 229.82 214.94 234.47 185.04 240.72 C 168.96 243.04 153.20 247.04 137.17 249.58 C 117.14 253.29 96.91 256.07 77.17 261.16 C 80.85 258.63 85.17 257.36 89.45 256.30 C 102.53 252.52 115.87 249.70 128.91 245.77 C 138.77 242.71 148.81 240.31 158.75 237.54 C 171.62 233.59 184.53 229.71 197.55 226.25 C 208.12 223.54 218.29 219.52 228.85 216.79 C 284.14 201.66 339.34 186.22 394.57 170.89 C 410.37 167.05 425.83 162.03 441.53 157.80 C 461.91 152.51 482.12 146.59 502.37 140.79 C 525.03 134.25 547.95 128.60 570.53 121.75 C 601.96 113.44 633.22 104.47 664.56 95.81 Z" />
<path fill="#f6f6f6" opacity="1.00" d=" M 1237.60 158.95 C 1244.61 158.60 1251.94 158.57 1258.58 161.17 C 1265.45 164.62 1271.61 169.64 1276.09 175.92 C 1287.61 192.05 1285.30 216.97 1269.83 229.79 C 1256.77 241.01 1235.77 244.14 1221.28 233.85 C 1214.10 229.05 1207.51 222.63 1204.53 214.34 C 1199.43 202.07 1201.12 187.44 1208.32 176.35 C 1215.08 166.85 1225.43 158.84 1237.60 158.95 M 1234.32 169.25 C 1227.62 170.71 1221.11 174.49 1217.58 180.52 C 1212.29 188.26 1209.79 198.29 1212.37 207.46 C 1215.16 215.73 1220.49 223.67 1228.68 227.35 C 1235.58 230.05 1243.29 231.22 1250.58 229.43 C 1267.66 226.22 1277.45 205.69 1272.14 189.82 C 1269.31 182.41 1264.40 175.34 1257.16 171.71 C 1250.03 168.60 1241.93 167.25 1234.32 169.25 Z" />
<path fill="#f6f6f6" opacity="1.00" d=" M 1226.64 181.74 C 1234.38 181.96 1242.15 181.51 1249.88 182.05 C 1254.94 182.19 1259.30 186.94 1258.55 192.06 C 1258.65 196.60 1255.41 199.95 1252.42 202.92 C 1256.40 207.66 1258.69 213.51 1260.99 219.18 C 1257.56 219.19 1252.86 220.89 1250.46 217.61 C 1248.31 213.44 1247.17 208.57 1243.80 205.14 C 1241.32 204.82 1237.86 203.84 1235.90 205.62 C 1235.57 210.18 1235.91 214.76 1235.53 219.32 C 1233.12 219.46 1230.72 219.53 1228.34 219.58 C 1227.74 218.77 1227.16 217.97 1226.59 217.18 C 1226.62 205.36 1226.52 193.55 1226.64 181.74 M 1236.30 188.37 C 1236.12 191.40 1236.08 194.44 1236.13 197.48 C 1239.78 197.61 1243.45 197.59 1247.13 197.63 C 1249.08 195.18 1250.39 190.91 1247.09 188.97 C 1243.68 187.64 1239.86 188.54 1236.30 188.37 Z" />
<path fill="#f6f6f6" opacity="1.00" d=" M 613.99 202.35 C 649.44 201.22 684.93 201.58 720.39 202.32 C 721.36 208.43 721.49 214.65 721.00 220.81 C 720.09 228.76 720.88 236.78 720.50 244.75 C 707.51 244.94 694.51 244.38 681.55 245.05 C 681.39 311.59 681.63 378.14 681.43 444.68 C 675.96 445.04 670.50 444.50 665.04 444.61 C 656.80 444.51 648.57 445.01 640.34 444.85 C 640.18 378.03 640.34 311.21 640.26 244.38 C 627.07 244.16 613.87 245.41 600.69 244.79 C 600.66 230.96 600.67 217.13 600.69 203.30 C 605.05 202.33 609.54 202.40 613.99 202.35 Z" />
<path fill="#f6f6f6" opacity="1.00" d=" M 731.49 203.04 C 745.43 203.97 759.39 204.64 773.33 205.60 C 773.31 234.40 773.33 263.20 773.32 292.00 C 773.44 303.56 773.06 315.14 773.55 326.69 C 778.56 317.93 781.75 308.31 785.85 299.11 C 789.14 290.70 792.96 282.50 796.02 274.00 C 797.02 271.32 798.06 268.65 799.13 266.01 C 804.52 252.75 810.18 239.61 815.26 226.24 C 817.27 221.11 819.55 216.06 820.86 210.70 C 821.36 210.34 822.35 209.63 822.85 209.28 C 835.35 210.67 847.88 211.88 860.35 213.55 C 860.36 290.58 860.42 367.61 860.32 444.64 C 846.16 444.99 831.97 444.95 817.80 444.66 C 817.20 419.44 817.89 394.20 817.42 368.97 C 817.41 355.31 817.58 341.65 817.73 327.99 C 817.71 325.78 817.51 323.58 817.28 321.39 C 810.16 338.01 805.21 355.44 798.19 372.09 C 790.80 390.33 783.79 408.72 776.48 426.99 C 774.32 432.88 771.75 438.64 770.02 444.69 C 757.20 444.94 744.37 444.98 731.55 444.66 C 731.39 364.12 731.50 283.58 731.49 203.04 Z" />
<path fill="#f6f6f6" opacity="1.00" d=" M 571.12 205.51 C 577.92 205.10 584.71 204.33 591.53 204.29 C 591.52 284.41 591.65 364.54 591.47 444.67 C 577.49 444.92 563.49 445.05 549.52 444.60 C 549.02 411.48 549.48 378.34 549.29 345.22 C 547.19 344.90 545.09 344.67 542.98 344.76 C 530.52 345.25 518.06 345.26 505.60 345.77 C 505.55 378.73 505.73 411.71 505.51 444.67 C 492.01 445.02 478.49 444.82 464.98 444.81 C 462.83 445.28 462.85 442.52 462.76 441.10 C 462.67 366.10 462.89 291.10 462.65 216.10 C 476.58 214.37 490.52 212.73 504.48 211.19 C 504.95 214.44 505.39 217.71 505.31 221.01 C 505.22 247.71 505.38 274.40 505.23 301.10 C 519.72 301.29 534.20 300.02 548.69 299.70 C 548.73 268.93 548.68 238.16 548.71 207.39 C 556.12 206.18 563.65 206.14 571.12 205.51 Z" />
<path fill="#f6f6f6" opacity="1.00" d=" M 874.46 215.53 C 888.51 216.89 902.56 218.44 916.58 220.17 C 916.78 234.43 916.53 248.70 916.70 262.96 C 917.70 272.95 917.05 283.00 917.25 293.02 C 917.55 299.98 916.17 306.89 916.79 313.86 C 917.31 313.80 918.35 313.68 918.87 313.62 C 922.35 305.91 926.47 298.50 930.03 290.82 C 930.67 289.47 931.32 288.12 932.00 286.77 C 935.46 278.21 940.31 270.28 943.91 261.78 C 946.62 255.32 950.08 249.23 953.03 242.88 C 955.61 237.49 957.66 231.79 960.90 226.74 C 961.81 224.75 964.10 225.90 965.72 226.12 C 976.57 228.94 987.87 228.95 998.91 230.68 C 1016.10 233.39 1033.26 236.45 1050.65 237.67 C 1057.85 263.64 1067.12 288.99 1073.80 315.11 C 1075.33 320.28 1075.99 325.81 1078.73 330.55 C 1088.29 302.90 1096.23 274.70 1105.74 247.03 C 1120.33 248.75 1134.87 251.07 1149.38 253.39 C 1146.29 263.64 1142.00 273.45 1138.72 283.63 C 1131.36 305.40 1123.25 326.90 1115.70 348.61 C 1107.80 369.10 1101.50 390.16 1093.82 410.74 C 1091.10 417.80 1088.43 424.99 1084.31 431.39 C 1077.56 440.40 1065.96 444.22 1055.13 445.10 C 1045.94 445.23 1036.74 445.20 1027.56 445.53 C 1027.36 433.88 1027.50 422.23 1027.48 410.58 C 1027.89 410.11 1028.69 409.18 1029.10 408.71 C 1034.66 408.82 1040.29 409.31 1045.83 408.52 C 1050.53 407.33 1053.35 402.91 1055.05 398.68 C 1056.94 393.86 1058.92 388.34 1056.74 383.27 C 1053.56 375.18 1050.77 366.94 1047.77 358.79 C 1045.29 352.17 1043.33 345.37 1040.77 338.79 C 1036.61 327.19 1033.04 315.39 1028.75 303.84 C 1023.80 288.90 1019.22 273.85 1014.05 258.99 C 1011.14 251.08 1009.23 242.78 1005.43 235.22 C 1005.03 235.20 1004.25 235.16 1003.85 235.14 C 1000.61 241.58 997.86 248.25 994.90 254.81 C 993.27 258.48 991.39 262.03 989.89 265.76 C 985.84 274.91 980.76 283.56 976.94 292.80 C 971.35 304.85 964.71 316.40 959.74 328.73 C 959.26 330.14 959.10 331.76 959.82 333.13 C 971.96 357.69 983.81 382.40 996.18 406.86 C 1002.35 419.64 1009.26 432.08 1014.94 445.09 C 1007.29 445.50 999.65 444.63 991.99 444.83 C 983.64 444.67 975.19 446.05 966.90 444.70 C 960.99 431.37 953.85 418.63 947.74 405.40 C 938.40 385.37 927.91 365.89 918.87 345.71 C 918.47 345.56 917.66 345.27 917.26 345.13 C 917.20 378.30 917.27 411.48 917.23 444.65 C 902.98 444.99 888.72 444.94 874.48 444.68 C 874.30 368.30 874.35 291.91 874.46 215.53 Z" />
<path fill="#f6f6f6" opacity="1.00" d=" M 373.13 228.70 C 398.81 224.51 424.57 220.70 450.45 217.98 C 450.50 231.93 450.47 245.88 450.46 259.83 C 446.69 260.88 442.77 261.10 438.91 261.54 C 420.04 263.72 401.18 266.06 382.30 268.14 C 382.47 283.61 382.07 299.09 382.51 314.55 C 401.25 313.54 419.95 311.98 438.69 310.92 C 438.79 324.63 438.74 338.35 438.71 352.06 C 419.97 352.89 401.24 353.95 382.51 354.98 C 382.54 371.80 382.45 388.63 382.56 405.45 C 405.42 405.54 428.30 403.99 451.15 404.39 C 451.77 417.83 451.55 431.30 451.34 444.75 C 414.32 444.95 377.28 444.84 340.26 444.80 C 339.97 435.57 340.50 426.32 339.95 417.09 C 339.34 400.71 340.37 384.35 340.19 367.97 C 340.40 362.63 339.88 357.31 339.87 351.98 C 340.79 342.65 339.38 333.33 339.87 323.99 C 340.35 319.69 340.18 315.36 340.19 311.05 C 340.19 291.03 340.19 271.01 340.20 250.99 C 340.30 245.07 339.86 239.15 340.26 233.24 C 351.28 232.19 362.14 230.00 373.13 228.70 Z" />
<path fill="#f6f6f6" opacity="1.00" d=" M 281.12 242.94 C 296.62 240.16 312.33 238.68 327.76 235.47 C 327.66 248.75 328.15 262.07 327.52 275.32 C 306.77 278.07 286.06 281.56 265.19 283.59 C 265.75 315.37 265.53 347.17 265.57 378.96 C 265.49 400.90 265.76 422.85 265.35 444.79 C 251.19 444.92 237.03 444.81 222.87 444.85 C 222.04 411.89 222.58 378.91 222.43 345.94 C 222.42 314.61 222.45 283.28 222.41 251.96 C 242.05 249.46 261.64 246.47 281.12 242.94 Z" />
<path fill="#f6f6f6" opacity="1.00" d=" M 1161.21 264.18 C 1170.01 259.45 1180.44 260.10 1189.96 261.83 C 1201.23 263.47 1212.17 266.80 1223.44 268.43 C 1235.61 270.27 1247.74 272.65 1259.47 276.44 C 1268.22 279.32 1276.37 285.17 1280.39 293.64 C 1283.35 299.29 1282.72 305.86 1282.77 312.02 C 1282.66 319.76 1282.98 327.52 1282.55 335.27 C 1268.33 333.45 1254.13 331.48 1239.89 329.81 C 1239.61 329.50 1239.06 328.88 1238.78 328.57 C 1238.72 322.42 1239.01 316.26 1238.68 310.12 C 1238.60 306.59 1235.25 304.36 1232.06 303.92 C 1224.34 302.53 1216.56 301.40 1208.81 300.21 C 1204.73 299.75 1200.01 298.87 1196.45 301.47 C 1194.97 312.56 1195.72 323.85 1195.79 335.02 C 1195.76 348.34 1195.80 361.67 1195.77 374.99 C 1195.51 383.65 1195.39 392.32 1195.73 400.98 C 1195.73 403.86 1196.47 406.70 1197.79 409.25 C 1204.63 411.63 1211.94 410.39 1219.03 410.71 C 1225.27 410.64 1231.54 411.63 1237.76 410.84 C 1240.11 402.82 1239.51 394.36 1239.56 386.11 C 1253.90 386.92 1268.26 388.00 1282.55 389.55 C 1283.03 394.36 1282.66 399.21 1282.76 404.04 C 1282.64 412.87 1283.29 421.82 1281.44 430.52 C 1278.92 435.87 1274.37 440.18 1268.65 441.88 C 1258.74 444.93 1248.25 444.52 1238.03 445.45 C 1220.36 446.66 1202.60 446.74 1184.96 445.19 C 1177.16 444.12 1169.16 442.64 1162.27 438.64 C 1155.37 433.91 1152.85 425.07 1152.83 417.08 C 1152.81 389.04 1152.83 361.00 1152.82 332.96 C 1153.01 314.56 1152.33 296.14 1153.41 277.77 C 1153.66 272.32 1156.32 266.88 1161.21 264.18 Z" />
<path fill="#f6f6f6" opacity="1.00" d=" M 147.50 266.17 C 152.69 265.26 157.81 263.87 163.07 263.40 C 163.40 263.76 164.05 264.47 164.38 264.83 C 171.36 287.27 178.09 309.79 184.86 332.30 C 190.32 353.01 196.71 373.46 202.54 394.07 C 206.77 411.22 212.75 427.90 216.82 445.08 C 202.12 444.68 187.38 444.91 172.66 444.84 C 169.68 435.32 168.09 425.44 165.40 415.85 C 149.03 416.29 132.66 416.51 116.30 417.01 C 114.39 416.92 114.28 419.35 113.75 420.67 C 111.90 428.85 109.97 437.02 108.11 445.20 C 93.66 444.59 79.21 444.92 64.76 445.43 C 73.39 412.69 82.79 380.16 91.62 347.48 C 98.82 322.13 105.49 296.62 112.87 271.32 C 124.41 269.59 136.01 268.23 147.50 266.17 M 139.40 315.25 C 136.27 326.11 134.25 337.25 131.48 348.21 C 128.93 359.59 126.07 370.90 123.74 382.33 C 134.49 381.51 145.27 381.03 156.01 380.06 C 151.61 361.66 146.84 343.35 142.33 324.97 C 141.54 321.68 140.66 318.40 139.40 315.25 Z" />
<path fill="#f6f6f6" opacity="1.00" d=" M 64.39 483.53 C 64.15 475.31 64.17 467.08 64.37 458.86 C 470.71 458.85 877.06 458.85 1283.40 458.86 C 1283.57 467.09 1283.63 475.33 1283.36 483.55 C 934.25 483.64 585.14 483.57 236.03 483.59 C 178.81 483.55 121.60 483.67 64.39 483.53 Z" />
</g>
</svg>
